<svg width="24" height="24" viewBox="0 0 24 24" fill="none" xmlns="http://www.w3.org/2000/svg">
	<path d="M4 6.6L6.66667 3H17.3333L20 6.6M4 6.6V19.2C4 19.6774 4.1873 20.1352 4.5207 20.4728C4.8541 20.8104
	5.30628 21 5.77778 21H18.2222C18.6937 21 19.1459 20.8104 19.4793 20.4728C19.8127 20.1352 20 19.6774 20
	19.2V6.6M4 6.6H20M15.5556 10.2C15.5556 11.1548 15.181 12.0705 14.5142 12.7456C13.8474 13.4207 12.943
	13.8 12 13.8C11.057 13.8 10.1526 13.4207 9.48584 12.7456C8.81905 12.0705 8.44444 11.1548 8.44444 10.2" stroke="#111111" stroke-width="2" stroke-linecap="round" stroke-linejoin="round"/>
</svg>
